# xmcd
#
# Track frame offsets:
#	150
#	11990
#	26789
#	43892
#	62382
#	74626
#	85762
#	106576
#	124438
#	140993
#	152332
#	165836
#	180089
#	190191
#	200891
#	222888
#	235185
#	249171
#	263724
#	280913
#	295980
#	316311
#	331466
#
# Disc length: 4667 seconds
#
# Revision: 1
# Processed by: cddbd v1.5.2PL0 Copyright (c) Steve Scherf et al.
# Submitted via: audiograbber 1.83.01
#
DISCID=4f123917
DTITLE=Ready Records - Country And More
DYEAR=2007
DGENRE=Country
TTITLE0=The Beginning Of The Ending  - Ernie Ashworth
TTITLE1=A Stranger In My Arms - Liz Talley
TTITLE2=Tattoo Rose  - Tommy Overstreet
TTITLE3=Walking Piece Of Heaven  - The Calhoun Twins
TTITLE4=Making Memories  - Jim Watson
TTITLE5=She Took My Cash  - Dick Shuey
TTITLE6=Embrace The World  - Marvell and Friends
TTITLE7=Broken Locket Twisted Chain - Shella Adkins
TTITLE8=I´ll Wait Til Tommorrow To Cry  - Curtis Andrews
TTITLE9=Walk On By  - Paul Puckett
TTITLE10=Marrid By The Bible  - The Piearcys
TTITLE11=Country In My Genes  - Brittany Boyce
TTITLE12=He´ll Have To Go  - Lin Butler
TTITLE13=Loving The Night Away  - Jim Watson
TTITLE14=Hard Yo Fall In Love  - Butch Ryan
TTITLE15=The B J Shuffle (instrumnental)  - Don Powell
TTITLE16=Redneck Santa Claus  - Bill Townsend
TTITLE17=Christmas Time  - Jerry Jones 
TTITLE18=Not Just Anothe Baby  - Gladys Jones
TTITLE19=Birthsday Hug  - Amber Morgan
TTITLE20=Christmas In America  - Amber Morgan
TTITLE21=Have A Merry Country Christmas  - Siera Sol
TTITLE22=A Special Message From Ready Records - Ready Records
EXTD=
EXTT0=
EXTT1=
EXTT2=
EXTT3=
EXTT4=
EXTT5=
EXTT6=
EXTT7=
EXTT8=
EXTT9=
EXTT10=
EXTT11=
EXTT12=
EXTT13=
EXTT14=
EXTT15=
EXTT16=
EXTT17=
EXTT18=
EXTT19=
EXTT20=
EXTT21=
EXTT22=
PLAYORDER=
